<svg width="449" height="445" viewBox="0 0 449 445" fill="none" xmlns="http://www.w3.org/2000/svg">
<rect width="449" height="444.309" rx="100" fill="#FF5F0D"/>
<path fill-rule="evenodd" clip-rule="evenodd" d="M138.558 276.316C162.666 251.827 168.446 246.428 172.021 244.754C174.759 243.461 176.964 243.005 181.375 243.005C186.547 243.005 187.459 243.233 190.882 245.439C194.532 247.796 234.764 287.648 241.761 295.862C244.195 298.676 245.564 301.109 246.02 303.315C246.324 305.064 246.628 319.058 246.704 334.344C246.704 359.366 246.552 362.332 245.412 363.244C244.499 364.081 240.468 364.309 226.855 364.309C217.348 364.309 209.287 364.005 208.982 363.701C207.689 362.408 207.233 350.315 207.233 312.898C207.157 276.696 207.081 274.339 205.788 273.198C205.028 272.514 203.354 271.677 202.062 271.449C199.172 270.84 198.715 271.221 175.215 294.417C164.948 304.532 157.267 311.529 156.05 311.833C154.833 312.137 153.236 311.909 151.867 311.148C148.901 309.627 128.823 288.789 128.823 287.268C128.823 286.659 133.158 281.716 138.558 276.316ZM323.749 204.65C307.778 205.107 306.028 205.259 303.214 206.78C299.716 208.605 254.921 253.02 250.13 259.332C247.012 263.439 246.936 263.743 246.707 270.056C246.479 276.368 246.555 276.748 248.989 280.399C250.358 282.452 259.636 292.491 269.675 302.606C289.145 322.456 289.373 322.608 294.316 320.022C295.457 319.414 300.933 314.318 306.485 308.69L306.994 308.175C313.73 301.358 316.615 298.438 316.486 295.659C316.389 293.577 314.599 291.573 311.47 288.069L311.276 287.852C308.386 284.582 299.64 275.607 291.807 267.85C274.467 250.662 273.706 249.445 277.281 245.262L279.106 243.133L322.836 242.753C358.277 242.448 366.718 242.144 367.707 241.308C368.848 240.395 369 238.189 369 223.816C369 211.723 368.772 207.008 368.087 206.095C366.871 204.574 349.835 204.042 323.749 204.65ZM132.476 150.881C132.476 149.816 145.938 135.518 152.858 129.282C155.52 126.772 157.498 125.631 158.943 125.631C160.616 125.631 164.266 128.978 179.705 144.492C190.2 155.14 199.403 165.027 200.619 167.08C202.521 170.35 202.825 171.643 202.825 176.587C202.825 180.693 202.369 183.051 201.38 184.952C199.251 188.983 148.676 239.102 145.025 240.851C142.287 242.144 139.245 242.296 112.855 242.6L83.7266 242.981L81.9013 241.231L80 239.482V223.511V207.54L81.9774 205.791L83.8787 203.966H126.924H170.046L171.796 202.292C173.012 201.152 173.545 199.783 173.545 197.729C173.545 194.839 172.784 194.003 154.303 175.218C135.062 155.748 132.476 152.858 132.476 150.881ZM204.726 112.018C204.726 83.8026 204.726 83.4983 206.4 81.7491C207.997 79.9999 208.225 79.9999 225.337 79.9999C238.19 79.9999 242.753 80.2281 243.361 80.9125C243.893 81.597 244.198 97.1118 244.426 125.479L244.654 169.134L246.783 170.959C250.966 174.533 252.183 173.925 265.34 161.224C271.957 154.836 278.726 148.219 280.399 146.47C282.072 144.721 286.103 140.842 289.297 137.952C293.784 133.845 295.761 132.552 297.891 132.324C300.553 132.02 301.009 132.324 311.048 142.515C323.521 155.14 324.053 155.9 321.923 159.399C319.49 163.278 285.342 196.589 281.311 198.946C278.193 200.771 276.9 201.076 271.729 201.076C267.546 201.076 264.884 200.619 262.831 199.707C259.028 197.958 210.354 149.512 207.084 144.34L204.726 140.538V112.018Z" fill="white"/>
</svg>
