<svg width="625" height="652" viewBox="0 0 625 652" fill="none" xmlns="http://www.w3.org/2000/svg">
<path fill-rule="evenodd" clip-rule="evenodd" d="M312.5 426C360.273 426 399 387.273 399 339.5C399 291.727 360.273 253 312.5 253C264.727 253 226 291.727 226 339.5C226 387.273 264.727 426 312.5 426ZM312.5 427C360.825 427 400 387.825 400 339.5C400 291.175 360.825 252 312.5 252C264.175 252 225 291.175 225 339.5C225 387.825 264.175 427 312.5 427Z" fill="#171717"/>
<path fill-rule="evenodd" clip-rule="evenodd" d="M313 498C400.813 498 472 426.813 472 339C472 251.187 400.813 180 313 180C225.187 180 154 251.187 154 339C154 426.813 225.187 498 313 498ZM313 499C401.366 499 473 427.366 473 339C473 250.634 401.366 179 313 179C224.634 179 153 250.634 153 339C153 427.366 224.634 499 313 499Z" fill="#171717"/>
<path fill-rule="evenodd" clip-rule="evenodd" d="M312.5 576C443.115 576 549 470.115 549 339.5C549 208.885 443.115 103 312.5 103C181.885 103 76 208.885 76 339.5C76 470.115 181.885 576 312.5 576ZM312.5 577C443.668 577 550 470.668 550 339.5C550 208.332 443.668 102 312.5 102C181.332 102 75 208.332 75 339.5C75 470.668 181.332 577 312.5 577Z" fill="#171717"/>
<path fill-rule="evenodd" clip-rule="evenodd" d="M312.5 651C484.537 651 624 511.537 624 339.5C624 167.463 484.537 28 312.5 28C140.463 28 1 167.463 1 339.5C1 511.537 140.463 651 312.5 651ZM312.5 652C485.089 652 625 512.089 625 339.5C625 166.911 485.089 27 312.5 27C139.911 27 0 166.911 0 339.5C0 512.089 139.911 652 312.5 652Z" fill="#171717"/>
<g filter="url(#filter0_d_138_198)">
<g clip-path="url(#clip0_138_198)">
<rect x="277" y="374" width="70" height="70" rx="16" transform="rotate(-90 277 374)" fill="#EA580C"/>
<g filter="url(#filter1_f_138_198)">
<path d="M312 314C325.807 314 337 325.193 337 339C337 352.807 325.807 364 312 364C298.193 364 287 352.807 287 339C287 325.193 298.193 314 312 314Z" fill="#803007" fill-opacity="0.73"/>
</g>
<rect x="289" y="361" width="45" height="45" rx="10" transform="rotate(-90 289 361)" fill="#FF5F0D"/>
<rect x="289" y="361" width="45" height="45" rx="10" transform="rotate(-90 289 361)" stroke="url(#paint0_linear_138_198)"/>
<path d="M297.516 340.285C297.689 340.45 297.719 340.45 300.501 340.45L303.314 340.45L303.689 340.217C304.199 339.895 308.976 335.095 309.149 334.72C309.239 334.517 309.284 334.255 309.284 333.842C309.284 333.332 309.254 333.205 309.074 332.897C308.841 332.5 305.556 329.132 305.174 328.892C304.829 328.682 304.754 328.735 303.509 329.965C302.504 330.955 302.474 331 302.504 331.262C302.526 331.472 302.654 331.667 303.059 332.11C303.344 332.425 303.726 332.822 303.899 332.987C304.071 333.152 304.724 333.82 305.354 334.472C306.606 335.77 306.666 335.89 306.314 336.302L306.134 336.512L301.829 336.535C299.031 336.557 297.501 336.587 297.434 336.64C297.366 336.7 297.344 337.15 297.344 338.417C297.344 340.105 297.344 340.127 297.516 340.285Z" fill="white"/>
<path d="M302.204 345.565C302.819 346.248 304.229 347.575 304.334 347.575C304.529 347.575 304.814 347.32 306.734 345.423C308.586 343.6 308.669 343.525 308.954 343.525C309.156 343.525 309.291 343.578 309.404 343.698L309.569 343.87L309.569 348.123L309.569 352.368L309.749 352.555L309.921 352.75L311.496 352.75L313.071 352.75L313.244 352.563L313.417 352.383L313.379 349.51C313.349 346.908 313.334 346.608 313.207 346.338C313.034 345.978 308.091 340.99 307.694 340.78C307.506 340.683 307.274 340.638 306.869 340.638C306.381 340.638 306.254 340.668 305.931 340.855C305.729 340.975 304.754 341.883 303.704 342.918C302.174 344.44 301.844 344.8 301.844 344.965C301.844 345.108 301.956 345.303 302.204 345.565Z" fill="white"/>
<path d="M309.636 328.712C309.681 330.287 309.696 330.46 309.846 330.737C310.026 331.082 314.406 335.5 315.029 335.972C315.434 336.28 315.464 336.287 316.086 336.31C316.709 336.332 316.746 336.325 317.106 336.085C317.309 335.95 318.299 335.035 319.296 334.045C321.254 332.125 321.269 332.102 321.014 331.615C320.954 331.502 320.451 330.962 319.896 330.415C318.659 329.192 318.681 329.192 317.841 329.942C317.519 330.227 316.634 331.09 315.869 331.862C314.174 333.572 314.054 333.647 313.641 333.295L313.431 333.115L313.394 328.802C313.364 325.307 313.334 324.475 313.251 324.377C313.161 324.265 312.944 324.25 311.526 324.25C310.334 324.25 309.869 324.272 309.779 324.34C309.629 324.46 309.576 326.14 309.636 328.712Z" fill="white"/>
<path d="M313.867 343.916C314.032 344.268 314.564 344.838 316.979 347.216C317.512 347.748 317.999 348.176 318.059 348.176C318.209 348.176 320.264 346.196 320.414 345.903C320.489 345.768 320.512 345.611 320.482 345.491C320.452 345.371 319.762 344.613 318.764 343.601C316.477 341.283 316.439 341.238 316.499 340.953C316.522 340.826 316.604 340.661 316.672 340.586C316.784 340.458 317.017 340.451 320.587 340.443C324.277 340.443 325.469 340.398 325.597 340.271C325.627 340.241 325.657 339.445 325.657 338.508C325.657 337.165 325.634 336.768 325.552 336.678C325.462 336.565 325.169 336.55 322.702 336.55C321.194 336.558 319.814 336.588 319.642 336.618C319.424 336.663 319.184 336.798 318.907 337.038C318.097 337.728 314.167 341.696 313.934 342.056C313.717 342.393 313.694 342.483 313.694 342.993C313.694 343.428 313.739 343.646 313.867 343.916Z" fill="white"/>
<path d="M268 386C264.686 386 262 383.314 262 380L262 362C262 358.686 264.686 356 268 356L286 356C289.314 356 292 358.686 292 362L292 380C292 383.314 289.314 386 286 386L268 386Z" fill="#FF5F0D"/>
<path d="M337 386C333.686 386 331 383.314 331 380L331 362C331 358.686 333.686 356 337 356L355 356C358.314 356 361 358.686 361 362L361 380C361 383.314 358.314 386 355 386L337 386Z" fill="#FF5F0D"/>
<path d="M268 321C264.686 321 262 318.314 262 315L262 297C262 293.686 264.686 291 268 291L286 291C289.314 291 292 293.686 292 297L292 315C292 318.314 289.314 321 286 321L268 321Z" fill="#FF5F0D"/>
<path d="M337 321C333.686 321 331 318.314 331 315L331 297C331 293.686 333.686 291 337 291L355 291C358.314 291 361 293.686 361 297L361 315C361 318.314 358.314 321 355 321L337 321Z" fill="#FF5F0D"/>
</g>
<rect x="277.5" y="373.5" width="69" height="69" rx="15.5" transform="rotate(-90 277.5 373.5)" stroke="url(#paint1_linear_138_198)" stroke-opacity="0.95"/>
</g>
<rect x="56" y="279.09" width="41.5" height="41.5" rx="9" transform="rotate(-4.2707 56 279.09)" fill="#FF5F0D"/>
<path fill-rule="evenodd" clip-rule="evenodd" d="M69.1341 290.399C68.7045 290.898 68.4753 291.72 68.5815 293.142L68.8496 296.733C68.9558 298.155 69.3046 298.934 69.8035 299.363C70.3024 299.793 71.1248 300.022 72.5469 299.916L75.6291 299.686C75.6543 298.533 75.9217 297.551 76.5682 296.8C77.2147 296.049 78.1462 295.639 79.2825 295.443L79.0523 292.361C78.9461 290.938 78.5973 290.159 78.0984 289.73C77.5995 289.3 76.7771 289.071 75.355 289.177L71.765 289.445C70.3429 289.551 69.5636 289.9 69.1341 290.399ZM67.9974 289.42C68.8135 288.472 70.0837 288.067 71.6533 287.949L75.2433 287.681C76.8129 287.564 78.1293 287.777 79.0772 288.593C80.025 289.409 80.431 290.679 80.5482 292.249L80.8312 296.038C80.8616 296.446 80.5597 296.803 80.1525 296.841C78.8439 296.962 78.1149 297.303 77.7049 297.779C77.2949 298.255 77.0667 299.026 77.141 300.339C77.1642 300.747 76.8559 301.098 76.4481 301.129L72.6586 301.412C71.089 301.529 69.7726 301.316 68.8248 300.5C67.8769 299.684 67.471 298.414 67.3538 296.844L67.0857 293.254C66.9684 291.685 67.1812 290.368 67.9974 289.42Z" fill="white"/>
<path fill-rule="evenodd" clip-rule="evenodd" d="M70.5203 292.076C71.266 291.452 72.3061 291.376 73.1292 291.85C73.4882 292.056 73.6118 292.515 73.4052 292.874C73.1986 293.233 72.7401 293.357 72.3811 293.15C72.0935 292.984 71.7375 293.013 71.4827 293.226C71.165 293.492 70.692 293.45 70.4262 293.132C70.1605 292.814 70.2026 292.341 70.5203 292.076Z" fill="white"/>
<path fill-rule="evenodd" clip-rule="evenodd" d="M74.5093 291.778C75.255 291.154 76.2951 291.078 77.1182 291.552C77.4772 291.759 77.6008 292.217 77.3942 292.576C77.1876 292.935 76.7291 293.059 76.3701 292.852C76.0825 292.687 75.7265 292.715 75.4717 292.928C75.154 293.194 74.681 293.152 74.4152 292.834C74.1495 292.517 74.1916 292.044 74.5093 291.778Z" fill="white"/>
<path fill-rule="evenodd" clip-rule="evenodd" d="M72.2166 297.354C72.2484 296.371 73.0183 295.549 74.0204 295.474C74.4853 295.439 74.9208 295.567 75.2685 295.806C75.6097 296.041 76.0767 295.955 76.3116 295.614C76.5464 295.273 76.4602 294.806 76.119 294.571C75.4942 294.141 74.7202 293.918 73.9087 293.978C72.0098 294.12 70.5834 295.777 70.7252 297.675C70.7784 298.388 71.3954 298.919 72.1077 298.866L74.4212 298.693C74.8343 298.662 75.1441 298.302 75.1133 297.889C75.0824 297.476 74.7226 297.166 74.3095 297.197L72.2166 297.354Z" fill="white"/>
<path fill-rule="evenodd" clip-rule="evenodd" d="M80.0273 295.346L83.8168 295.063C85.3864 294.946 86.7028 295.159 87.6506 295.975C88.5985 296.791 89.0044 298.061 89.1217 299.631L89.3898 303.221C89.507 304.791 89.2942 306.107 88.478 307.055C87.6619 308.003 86.3917 308.409 84.8221 308.526L81.2321 308.794C79.6625 308.911 78.3461 308.698 77.3983 307.882C76.4504 307.066 76.0445 305.796 75.9272 304.226L75.6433 300.423C75.5597 298.95 75.7878 297.706 76.5682 296.8C77.3485 295.894 78.544 295.484 80.0139 295.347L80.0273 295.346ZM80.1459 296.842C78.8414 296.963 78.1142 297.303 77.7049 297.779C77.2956 298.254 77.0674 299.024 77.1406 300.332L77.4231 304.115C77.5293 305.537 77.8781 306.316 78.377 306.746C78.8759 307.175 79.6983 307.404 81.1204 307.298L84.7104 307.03C86.1325 306.924 86.9118 306.575 87.3414 306.076C87.7709 305.577 88.0001 304.755 87.8939 303.333L87.6258 299.743C87.5196 298.321 87.1708 297.541 86.6719 297.112C86.173 296.682 85.3506 296.453 83.9285 296.559L80.1459 296.842Z" fill="white"/>
<path fill-rule="evenodd" clip-rule="evenodd" d="M78.9132 299.353C79.1288 299 79.5903 298.888 79.944 299.103C80.2276 299.276 80.5839 299.252 80.8437 299.045C81.1681 298.788 81.6399 298.842 81.8975 299.166C82.1551 299.491 82.101 299.962 81.7766 300.22C81.033 300.811 79.9932 300.89 79.1632 300.384C78.8095 300.169 78.6976 299.707 78.9132 299.353Z" fill="white"/>
<path fill-rule="evenodd" clip-rule="evenodd" d="M82.902 299.055C83.1176 298.702 83.5791 298.59 83.9328 298.806C84.2164 298.978 84.5727 298.954 84.8325 298.747C85.1569 298.49 85.6287 298.544 85.8863 298.868C86.1439 299.193 86.0898 299.664 85.7654 299.922C85.0218 300.513 83.982 300.592 83.1519 300.086C82.7983 299.871 82.6864 299.409 82.902 299.055Z" fill="white"/>
<path fill-rule="evenodd" clip-rule="evenodd" d="M80.6605 303C80.838 303.967 81.7214 304.666 82.7234 304.591C83.7255 304.516 84.4953 303.694 84.5273 302.712L80.6605 303ZM79.1378 302.903C79.0846 302.191 79.6161 301.574 80.3282 301.521L84.6362 301.199C85.3483 301.146 85.9655 301.677 86.0186 302.39C86.1605 304.289 84.7341 305.945 82.8352 306.087C80.9362 306.229 79.2796 304.802 79.1378 302.903Z" fill="white"/>
<g filter="url(#filter2_f_138_198)">
<rect x="327.268" y="77" width="52" height="52" rx="9" transform="rotate(4.70821 327.268 77)" fill="#FF5F0D"/>
<path fill-rule="evenodd" clip-rule="evenodd" d="M340.849 94.9749C339.807 95.7943 339.068 97.1796 338.889 99.3626L338.123 108.664C337.943 110.847 338.444 112.335 339.339 113.314C340.242 114.303 341.655 114.892 343.534 115.047L356.822 116.141C358.701 116.296 360.191 115.946 361.244 115.118C362.286 114.298 363.024 112.913 363.204 110.73L363.97 101.428C364.15 99.2453 363.648 97.7579 362.754 96.779C361.851 95.79 360.438 95.2006 358.559 95.0459L345.271 93.9515C343.392 93.7968 341.902 94.147 340.849 94.9749ZM339.922 93.7957C341.372 92.6557 343.286 92.283 345.394 92.4566L358.682 93.551C360.79 93.7246 362.618 94.4055 363.862 95.7673C365.115 97.1393 365.669 99.0835 365.465 101.551L364.699 110.853C364.496 113.321 363.632 115.149 362.171 116.297C360.721 117.437 358.807 117.81 356.699 117.636L343.41 116.542C341.303 116.368 339.475 115.687 338.231 114.325C336.978 112.953 336.424 111.009 336.628 108.541L337.394 99.2394C337.597 96.7715 338.461 94.9441 339.922 93.7957Z" fill="white"/>
<path fill-rule="evenodd" clip-rule="evenodd" d="M358.643 101.189C358.874 101.533 358.783 101.999 358.439 102.23L354.005 105.21C352.256 106.381 349.624 106.164 348.091 104.723L348.089 104.721L344.217 101.058C343.916 100.773 343.903 100.298 344.187 99.9973C344.472 99.6964 344.947 99.6833 345.248 99.9679L349.118 103.63C349.118 103.63 349.119 103.63 349.119 103.631C350.143 104.593 352.002 104.746 353.17 103.964C353.17 103.964 353.169 103.964 353.17 103.964L357.602 100.985C357.946 100.754 358.412 100.845 358.643 101.189Z" fill="white"/>
</g>
<g filter="url(#filter3_f_138_198)">
<path d="M61.6058 197.344L32.5501 199.886C23.8334 200.648 17.641 196.798 16.7513 186.629L14.9718 166.29C14.0821 156.12 19.5119 151.254 28.2287 150.491L57.2843 147.949C66.001 147.186 72.1935 151.036 73.0832 161.206L74.8626 181.545C75.7524 191.714 70.3225 196.581 61.6058 197.344Z" fill="#FF5F0D" fill-opacity="0.41"/>
<path fill-rule="evenodd" clip-rule="evenodd" d="M19.1105 155.869C17.1317 158.057 16.0462 161.359 16.4661 166.159L18.2456 186.498C18.6655 191.298 20.3079 194.361 22.6366 196.173C24.987 198.001 28.2901 198.753 32.4194 198.391L61.4751 195.849C65.6044 195.488 68.7268 194.174 70.7241 191.966C72.7029 189.777 73.7883 186.475 73.3684 181.675L71.5889 161.336C71.169 156.537 69.5267 153.473 67.1979 151.662C64.8475 149.833 61.5444 149.082 57.4151 149.443L28.3594 151.985C24.2301 152.346 21.1077 153.66 19.1105 155.869ZM16.8853 153.857C19.5597 150.899 23.5105 149.398 28.0979 148.997L57.1536 146.455C61.7411 146.053 65.8925 146.845 69.0399 149.294C72.209 151.759 74.1077 155.705 74.5775 161.075L76.357 181.414C76.8267 186.784 75.6421 191 72.9493 193.978C70.2748 196.935 66.324 198.436 61.7366 198.838L32.6809 201.38C28.0935 201.781 23.942 200.989 20.7946 198.541C17.6255 196.075 15.7268 192.129 15.257 186.76L13.4776 166.421C13.0078 161.051 14.1924 156.835 16.8853 153.857Z" fill="#FF5F0D"/>
<path d="M58.6825 163.93L50.2236 171.989C47.4393 174.633 42.5289 175.063 39.3277 172.942L29.6268 166.472" fill="#C2410C"/>
<path fill-rule="evenodd" clip-rule="evenodd" d="M59.7685 162.895C60.3399 163.495 60.317 164.444 59.7172 165.015L51.2565 173.077C47.9655 176.202 42.2831 176.7 38.4992 174.193L38.4953 174.19L28.7944 167.719C28.1053 167.26 27.9192 166.328 28.3789 165.639C28.8386 164.95 29.77 164.764 30.4592 165.224L40.1561 171.692C40.1567 171.692 40.1574 171.693 40.158 171.693C42.7763 173.426 46.9125 173.064 49.1896 170.902C49.19 170.902 49.1903 170.902 49.1906 170.901L57.6478 162.844C58.2475 162.272 59.197 162.295 59.7685 162.895Z" fill="#FF5F0D"/>
</g>
<g filter="url(#filter4_f_138_198)">
<rect x="493.799" y="195.618" width="41.5" height="41.5" rx="9" transform="rotate(4.39559 493.799 195.618)" fill="white"/>
<path fill-rule="evenodd" clip-rule="evenodd" d="M504.701 208.336C506.134 207.108 508.164 206.752 510.73 206.949L516.712 207.409C519.279 207.606 521.231 208.268 522.459 209.701C523.687 211.134 524.043 213.164 523.846 215.73L523.386 221.713C523.189 224.279 522.527 226.231 521.094 227.459C519.661 228.688 517.631 229.043 515.065 228.846L509.082 228.386C506.516 228.189 504.564 227.527 503.336 226.094C502.107 224.661 501.752 222.631 501.949 220.065L502.409 214.083C502.606 211.516 503.268 209.564 504.701 208.336ZM505.677 209.475C504.694 210.317 504.09 211.779 503.905 214.197L503.445 220.18C503.259 222.599 503.632 224.135 504.475 225.118C505.317 226.101 506.778 226.705 509.197 226.89L515.18 227.35C517.599 227.536 519.135 227.163 520.118 226.32C521.101 225.478 521.704 224.017 521.89 221.598L522.35 215.615C522.536 213.196 522.163 211.66 521.32 210.677C520.478 209.694 519.016 209.091 516.598 208.905L510.615 208.445C508.196 208.259 506.66 208.632 505.677 209.475Z" fill="#FF5F0D"/>
<path fill-rule="evenodd" clip-rule="evenodd" d="M510.386 219.52C509.631 219.462 508.973 220.026 508.915 220.781C508.857 221.535 509.421 222.194 510.176 222.252C510.93 222.31 511.589 221.745 511.647 220.991C511.705 220.236 511.14 219.578 510.386 219.52ZM507.419 220.666C507.541 219.085 508.92 217.903 510.501 218.024C512.081 218.146 513.264 219.525 513.142 221.106C513.021 222.686 511.641 223.869 510.061 223.747C508.48 223.626 507.298 222.246 507.419 220.666Z" fill="#FF5F0D"/>
<path fill-rule="evenodd" clip-rule="evenodd" d="M513.02 212.912C513.433 212.944 513.742 213.305 513.71 213.718L513.142 221.106C513.11 221.519 512.75 221.828 512.337 221.796C511.924 221.764 511.615 221.404 511.647 220.991L512.214 213.603C512.246 213.19 512.607 212.881 513.02 212.912Z" fill="#FF5F0D"/>
<path fill-rule="evenodd" clip-rule="evenodd" d="M513.829 213.435C513.804 213.451 513.726 213.514 513.71 213.718L513.663 214.336C513.654 214.451 513.689 214.614 513.789 214.777C513.889 214.941 514.017 215.047 514.123 215.092L516.402 216.051C516.587 216.131 516.677 216.09 516.701 216.076C516.725 216.061 516.804 215.999 516.82 215.792L516.868 215.174C516.877 215.059 516.841 214.896 516.741 214.732C516.642 214.569 516.513 214.462 516.407 214.418C516.407 214.418 516.407 214.418 516.407 214.418L514.131 213.46C513.941 213.379 513.852 213.421 513.829 213.435ZM514.717 212.079C514.16 211.842 513.549 211.847 513.043 212.158C512.539 212.468 512.26 213.008 512.215 213.603L512.167 214.221C512.13 214.704 512.276 215.177 512.508 215.558C512.74 215.939 513.093 216.286 513.541 216.474L515.812 217.43C516.364 217.667 516.973 217.665 517.48 217.358C517.986 217.05 518.27 216.508 518.316 215.907L518.363 215.289C518.401 214.805 518.254 214.333 518.022 213.952C517.79 213.571 517.437 213.224 516.989 213.035L514.717 212.079Z" fill="#FF5F0D"/>
</g>
<g filter="url(#filter5_f_138_198)">
<rect x="153" y="126.204" width="40" height="40" rx="9" transform="rotate(-8.92272 153 126.204)" fill="white"/>
<path d="M174.366 153.8L180.635 152.816C185.858 151.995 187.62 149.578 186.8 144.354L185.815 138.085C184.995 132.862 182.578 131.1 177.354 131.92L171.085 132.904C165.862 133.725 164.1 136.142 164.92 141.366L165.904 147.635C166.725 152.858 169.142 154.62 174.366 153.8Z" fill="white"/>
<path fill-rule="evenodd" clip-rule="evenodd" d="M165.326 135.185C166.435 133.663 168.345 132.821 171.007 132.403L177.275 131.419C179.937 131.001 182.013 131.217 183.535 132.326C185.057 133.435 185.899 135.345 186.317 138.007L187.301 144.275C187.719 146.937 187.503 149.013 186.394 150.535C185.285 152.057 183.375 152.899 180.713 153.317L174.445 154.301C171.783 154.719 169.707 154.503 168.185 153.394C166.663 152.285 165.821 150.375 165.403 147.713L164.419 141.445C164.001 138.783 164.217 136.707 165.326 135.185ZM166.147 135.783C165.274 136.981 165.02 138.725 165.422 141.287L166.406 147.556C166.808 150.118 167.585 151.701 168.783 152.573C169.981 153.446 171.725 153.701 174.287 153.298L180.556 152.314C183.118 151.912 184.701 151.135 185.573 149.937C186.446 148.739 186.701 146.995 186.298 144.433L185.314 138.164C184.912 135.602 184.135 134.019 182.937 133.147C181.739 132.274 179.995 132.019 177.433 132.422L171.164 133.406C168.602 133.808 167.019 134.585 166.147 135.783Z" fill="#FF5F0D"/>
<path fill-rule="evenodd" clip-rule="evenodd" d="M175.365 139.705C173.622 139.978 172.431 141.613 172.705 143.355C172.978 145.098 174.613 146.289 176.355 146.015C178.098 145.742 179.289 144.107 179.015 142.365C178.742 140.622 177.107 139.431 175.365 139.705ZM171.702 143.513C171.341 141.216 172.911 139.062 175.207 138.702C177.504 138.341 179.658 139.911 180.018 142.207C180.379 144.504 178.809 146.658 176.513 147.018C174.216 147.379 172.062 145.809 171.702 143.513Z" fill="#FF5F0D"/>
<path fill-rule="evenodd" clip-rule="evenodd" d="M180.427 136.79C180.383 136.513 180.572 136.254 180.849 136.21L180.861 136.208C181.138 136.165 181.398 136.354 181.442 136.631C181.485 136.908 181.296 137.168 181.019 137.211L181.007 137.213C180.73 137.257 180.47 137.067 180.427 136.79Z" fill="#FF5F0D"/>
</g>
<rect x="258.184" y="170.529" width="33.3994" height="33.3994" rx="7" transform="rotate(-3.20168 258.184 170.529)" fill="white"/>
<path d="M276.275 195.619C281.437 195.336 285.392 190.922 285.11 185.759C284.827 180.597 280.413 176.642 275.25 176.925C270.088 177.208 266.133 181.622 266.416 186.784C266.699 191.946 271.113 195.901 276.275 195.619Z" stroke="#FF5F0D" stroke-width="1.5" stroke-linecap="round" stroke-linejoin="round"/>
<path d="M272.756 186.652L272.67 185.091C272.564 183.147 273.894 182.277 275.63 183.157L277.028 183.868L278.426 184.579C280.162 185.459 280.249 187.048 278.62 188.112L277.308 188.971L275.995 189.831C274.366 190.895 272.949 190.176 272.842 188.232L272.756 186.652Z" stroke="#FF5F0D" stroke-width="1.5" stroke-miterlimit="10" stroke-linecap="round" stroke-linejoin="round"/>
<g filter="url(#filter6_f_138_198)">
<path fill-rule="evenodd" clip-rule="evenodd" d="M502.135 80.3716C497.535 79.1391 492.765 81.893 491.533 86.4925L486.524 105.187C485.291 109.787 488.045 114.557 492.645 115.789L524.534 124.334C529.134 125.567 533.904 122.813 535.136 118.213L535.464 116.991L532.269 116.135C528.354 115.086 525.32 111.204 526.094 106.878C526.512 104.423 528.023 102.43 530.019 101.301C531.829 100.232 533.999 99.9257 536.104 100.49L539.632 101.435L540.146 99.5182C541.378 94.9187 538.624 90.1489 534.025 88.9164L502.135 80.3716ZM487.366 85.3761C489.215 78.4753 496.35 74.3557 503.251 76.2048L535.141 84.7496C542.042 86.5987 546.161 93.7339 544.312 100.635L543.24 104.635C542.932 105.785 541.749 106.468 540.599 106.16L534.988 104.656C533.99 104.389 533.009 104.541 532.202 105.021L532.155 105.049C531.223 105.572 530.535 106.489 530.346 107.607L530.342 107.633C530.016 109.436 531.305 111.411 533.386 111.968L538.664 113.382C539.814 113.691 540.497 114.873 540.189 116.024L539.303 119.33C537.454 126.23 530.319 130.35 523.418 128.501L491.528 119.956C484.627 118.107 480.508 110.972 482.357 104.071L487.366 85.3761Z" fill="#FF5F0D"/>
<path d="M491.533 86.4925C492.765 81.893 497.535 79.1391 502.135 80.3716L534.025 88.9164C538.624 90.1489 541.378 94.9187 540.146 99.5182L539.632 101.435L536.104 100.49C533.999 99.9257 531.829 100.232 530.019 101.301C528.023 102.43 526.512 104.423 526.094 106.878C525.32 111.204 528.354 115.086 532.269 116.135L535.464 116.991L535.136 118.213C533.904 122.813 529.134 125.567 524.534 124.334L492.645 115.789C488.045 114.557 485.291 109.787 486.524 105.187L491.533 86.4925Z" fill="#FF5F0D" fill-opacity="0.33"/>
<path fill-rule="evenodd" clip-rule="evenodd" d="M527.3 73.5679C527.901 71.3247 526.072 69.184 523.785 69.4145L499.495 71.8383C496.996 72.0893 494.919 73.8546 494.265 76.2979L490.863 88.9925C490.555 90.1431 489.372 90.826 488.221 90.5177C487.071 90.2094 486.388 89.0267 486.696 87.876L490.098 75.1814C491.215 71.0137 494.772 67.9764 499.065 67.546L523.353 65.1225C523.353 65.1225 523.352 65.1226 523.353 65.1225C528.654 64.5888 532.845 69.5389 531.467 74.6844L528.638 85.2402C528.33 86.3908 527.147 87.0736 525.997 86.7653C524.846 86.457 524.163 85.2743 524.471 84.1237L527.3 73.5679Z" fill="#FF5F0D"/>
<path fill-rule="evenodd" clip-rule="evenodd" d="M534.984 104.656C533.987 104.389 533.006 104.541 532.199 105.021L532.152 105.048C531.219 105.572 530.531 106.488 530.343 107.607L530.338 107.632L530.338 107.632C530.013 109.435 531.301 111.41 533.382 111.968L538.779 113.414C539.236 113.505 539.623 113.233 539.722 112.863L541.256 107.14C541.355 106.77 541.155 106.341 540.714 106.191L534.984 104.656ZM530.016 101.3C531.826 100.231 533.996 99.9254 536.101 100.489L541.879 102.037C541.903 102.044 541.928 102.051 541.953 102.059C544.574 102.863 546.14 105.578 545.422 108.257L543.889 113.979C543.171 116.658 540.458 118.227 537.785 117.612C537.76 117.606 537.735 117.6 537.71 117.593L532.266 116.135C528.35 115.085 525.317 111.204 526.091 106.878C526.508 104.423 528.02 102.43 530.016 101.3Z" fill="#FF5F0D"/>
<path fill-rule="evenodd" clip-rule="evenodd" d="M499.502 90.0866C499.81 88.936 500.993 88.2531 502.143 88.5614L521.588 93.7717C522.739 94.08 523.422 95.2627 523.114 96.4134C522.805 97.564 521.623 98.2468 520.472 97.9385L501.027 92.7282C499.876 92.4199 499.194 91.2372 499.502 90.0866Z" fill="#FF5F0D"/>
</g>
<g filter="url(#filter7_f_138_198)">
<path fill-rule="evenodd" clip-rule="evenodd" d="M243.597 45.4637C244.421 45.3771 245.159 45.9748 245.246 46.7987L245.886 52.8901C245.973 53.714 245.375 54.4521 244.551 54.5387C243.727 54.6253 242.989 54.0276 242.903 53.2037L242.263 47.1123C242.176 46.2884 242.774 45.5503 243.597 45.4637Z" fill="#FF5F0D"/>
<path d="M230.928 64.4336L259.935 61.3849L259.63 58.4842C259.294 55.2935 256.409 52.9572 253.219 53.2926L235.815 55.1218C232.624 55.4572 230.288 58.3422 230.623 61.533L230.928 64.4336V64.4336Z" fill="#AF430A"/>
<path fill-rule="evenodd" clip-rule="evenodd" d="M229.131 61.6898C228.709 57.6751 231.643 54.052 235.658 53.63L253.062 51.8008C257.076 51.3788 260.7 54.3128 261.121 58.3274L261.583 62.7199L231.084 65.9254L230.928 64.4336L229.436 64.5904L229.131 61.6898ZM232.263 62.7851L258.286 60.0499L258.138 58.641C257.889 56.2741 255.742 54.5356 253.375 54.7844L235.971 56.6136C233.604 56.8624 231.866 59.0093 232.115 61.3762L232.263 62.7851Z" fill="#FF5F0D"/>
<path fill-rule="evenodd" clip-rule="evenodd" d="M226.535 64.8953C226.449 64.0714 227.046 63.3333 227.87 63.2467L262.678 59.5882C263.502 59.5017 264.24 60.0993 264.327 60.9232C264.414 61.7471 263.816 62.4852 262.992 62.5718L228.184 66.2303C227.36 66.3169 226.622 65.7192 226.535 64.8953Z" fill="#FF5F0D"/>
<path d="M243.167 45.5508C231.942 46.7307 221.908 38.6058 220.728 27.3801L219.814 18.6781C219.14 12.2675 223.786 6.52958 230.197 5.8558L247.601 4.02656C254.012 3.35278 259.75 7.99929 260.423 14.4098L261.338 23.1119C262.518 34.3375 254.393 44.371 243.167 45.5508Z" fill="#FF5F0D" fill-opacity="0.45"/>
<path fill-rule="evenodd" clip-rule="evenodd" d="M230.354 7.34759C224.767 7.93476 220.718 12.9346 221.305 18.5213L222.22 27.2233C223.313 37.6251 232.609 45.1523 243.01 44.059C253.412 42.9658 260.939 33.6704 259.846 23.2687L258.931 14.5666C258.344 8.97997 253.344 4.93116 247.758 5.51834L230.354 7.34759ZM218.322 18.8348C217.561 11.6004 222.806 5.12439 230.04 4.36402L247.444 2.53477C254.679 1.7744 261.155 7.01861 261.915 14.253L262.83 22.9551C264.096 35.0046 255.374 45.7761 243.324 47.0426C231.274 48.3091 220.503 39.5865 219.236 27.5369L218.322 18.8348Z" fill="#FF5F0D"/>
<path fill-rule="evenodd" clip-rule="evenodd" d="M217.97 15.5433C214.821 15.9585 212.644 18.7069 212.979 21.8893C213.356 25.4765 215.208 28.447 217.91 30.8901C218.569 31.4208 219.29 31.9006 220.058 32.3065C219.469 30.6764 219.063 28.9492 218.872 27.1353L217.957 18.4333C217.855 17.4618 217.858 16.4923 217.97 15.5433ZM209.995 22.2029C209.482 17.318 212.935 13.0538 217.82 12.5404L219.705 12.3422C220.208 12.2894 220.704 12.4934 221.024 12.8849C221.344 13.2764 221.445 13.8028 221.293 14.285C220.92 15.4676 220.799 16.7691 220.941 18.1197L221.856 26.8218C222.138 29.5096 222.967 31.977 224.208 34.1901C224.496 34.7028 224.457 35.3361 224.11 35.8103C223.762 36.2844 223.17 36.5119 222.595 36.3922C220.079 35.8693 217.816 34.6745 215.992 33.197C215.971 33.1804 215.951 33.1633 215.932 33.1457C212.819 30.3413 210.471 26.7245 209.995 22.2029Z" fill="#FF5F0D"/>
<path fill-rule="evenodd" clip-rule="evenodd" d="M258.036 8.99479C258.267 8.5453 258.71 8.24268 259.213 8.18983L261.098 7.99166C265.983 7.47824 270.247 10.9313 270.761 15.8162C271.236 20.3378 269.691 24.3638 267.229 27.7542C267.214 27.7755 267.198 27.7963 267.181 27.8168C265.704 29.6413 263.739 31.2804 261.387 32.315C260.849 32.5517 260.222 32.4523 259.784 32.0608C259.345 31.6693 259.176 31.0577 259.351 30.4965C260.104 28.0738 260.402 25.4879 260.12 22.8L259.205 14.098C259.063 12.7474 258.674 11.4994 258.064 10.4202C257.815 9.98015 257.804 9.44428 258.036 8.99479ZM261.575 10.9602C261.883 11.8651 262.087 12.813 262.189 13.7844L263.103 22.4865C263.294 24.3004 263.256 26.0742 263.019 27.7911C263.685 27.2344 264.291 26.6153 264.825 25.9592C266.96 23.0077 268.154 19.7171 267.777 16.1298C267.443 12.9474 264.742 10.7116 261.575 10.9602Z" fill="#FF5F0D"/>
</g>
<path d="M473.679 333.342C481.499 331.412 486.273 323.508 484.343 315.689C482.412 307.87 474.508 303.096 466.689 305.026C458.87 306.956 454.096 314.86 456.026 322.679C457.956 330.499 465.86 335.273 473.679 333.342Z" fill="#EA580C" fill-opacity="0.45" stroke="#FF5F0D" stroke-width="1.5" stroke-linecap="round" stroke-linejoin="round"/>
<path d="M465.452 320.217L467.931 320.221L467.928 325.99C467.931 327.341 468.659 327.612 469.55 326.596L475.629 319.703C476.368 318.859 476.062 318.169 474.934 318.162L472.454 318.158L472.457 312.389C472.454 311.038 471.726 310.767 470.835 311.783L464.756 318.677C464.018 319.52 464.324 320.21 465.452 320.217Z" fill="#EA580C" fill-opacity="0.45" stroke="#FF5F0D" stroke-width="1.5" stroke-miterlimit="10" stroke-linecap="round" stroke-linejoin="round"/>
<rect x="399.589" y="196" width="38" height="38" rx="9" transform="rotate(11.5207 399.589 196)" fill="#FF5F0D"/>
<path d="M424.61 218.449L424.011 221.389C423.212 225.308 420.853 226.869 416.933 226.07L416.443 225.97C416.14 225.908 415.816 225.995 415.58 226.202L413.71 227.862C412.888 228.593 411.83 228.377 411.359 227.383L410.288 225.124C410.176 224.876 409.849 224.626 409.584 224.572L409.094 224.472C405.175 223.673 403.415 222.294 404.414 217.395L405.412 212.495C406.211 208.576 408.57 207.016 412.49 207.814L418.369 209.013" stroke="white" stroke-width="1.5" stroke-miterlimit="10" stroke-linecap="round" stroke-linejoin="round"/>
<path d="M422.759 215.011C424.112 215.286 425.433 214.413 425.708 213.06C425.984 211.707 425.111 210.387 423.758 210.111C422.405 209.836 421.085 210.709 420.809 212.062C420.533 213.414 421.406 214.735 422.759 215.011Z" stroke="white" stroke-width="1.5" stroke-linecap="round" stroke-linejoin="round"/>
<path d="M418.528 218.23L418.536 218.232" stroke="white" stroke-width="2" stroke-linecap="round" stroke-linejoin="round"/>
<path d="M414.607 217.431L414.616 217.433" stroke="white" stroke-width="2" stroke-linecap="round" stroke-linejoin="round"/>
<path d="M410.687 216.632L410.695 216.634" stroke="white" stroke-width="2" stroke-linecap="round" stroke-linejoin="round"/>
<path d="M146.135 353.332L145.474 358.833Z" fill="#FF5F0D" fill-opacity="0.4"/>
<path d="M146.135 353.332L145.474 358.833" stroke="#EA580C" stroke-width="1.5" stroke-linecap="round" stroke-linejoin="round"/>
<path d="M150.202 351.96L149.103 361.116Z" fill="#FF5F0D" fill-opacity="0.4"/>
<path d="M150.202 351.96L149.103 361.116" stroke="#EA580C" stroke-width="1.5" stroke-linecap="round" stroke-linejoin="round"/>
<path d="M154.27 350.588L152.73 363.412Z" fill="#FF5F0D" fill-opacity="0.4"/>
<path d="M154.27 350.588L152.73 363.412" stroke="#EA580C" stroke-width="1.5" stroke-linecap="round" stroke-linejoin="round"/>
<path d="M157.897 352.884L156.798 362.04Z" fill="#FF5F0D" fill-opacity="0.4"/>
<path d="M157.897 352.884L156.798 362.04" stroke="#EA580C" stroke-width="1.5" stroke-linecap="round" stroke-linejoin="round"/>
<path d="M161.524 355.179L160.864 360.681Z" fill="#FF5F0D" fill-opacity="0.4"/>
<path d="M161.524 355.179L160.864 360.681" stroke="#EA580C" stroke-width="1.5" stroke-linecap="round" stroke-linejoin="round"/>
<path d="M148.113 369.363L155.808 370.287C162.22 371.056 165.093 368.799 165.863 362.387L166.787 354.692C167.556 348.28 165.3 345.407 158.887 344.637L151.193 343.714C144.78 342.944 141.907 345.201 141.137 351.613L140.214 359.308C139.444 365.72 141.701 368.593 148.113 369.363Z" fill="#FF5F0D" fill-opacity="0.4" stroke="#EA580C" stroke-width="1.5" stroke-linecap="round" stroke-linejoin="round"/>
<defs>
<filter id="filter0_d_138_198" x="231" y="258" width="170" height="170" filterUnits="userSpaceOnUse" color-interpolation-filters="sRGB">
<feFlood flood-opacity="0" result="BackgroundImageFix"/>
<feColorMatrix in="SourceAlpha" type="matrix" values="0 0 0 0 0 0 0 0 0 0 0 0 0 0 0 0 0 0 127 0" result="hardAlpha"/>
<feOffset dx="4" dy="4"/>
<feGaussianBlur stdDeviation="25"/>
<feComposite in2="hardAlpha" operator="out"/>
<feColorMatrix type="matrix" values="0 0 0 0 0.0156863 0 0 0 0 0.00392157 0 0 0 0 0.00784314 0 0 0 0.42 0"/>
<feBlend mode="normal" in2="BackgroundImageFix" result="effect1_dropShadow_138_198"/>
<feBlend mode="normal" in="SourceGraphic" in2="effect1_dropShadow_138_198" result="shape"/>
</filter>
<filter id="filter1_f_138_198" x="257" y="284" width="110" height="110" filterUnits="userSpaceOnUse" color-interpolation-filters="sRGB">
<feFlood flood-opacity="0" result="BackgroundImageFix"/>
<feBlend mode="normal" in="SourceGraphic" in2="BackgroundImageFix" result="shape"/>
<feGaussianBlur stdDeviation="15" result="effect1_foregroundBlur_138_198"/>
</filter>
<filter id="filter2_f_138_198" x="322" y="76" width="58.0928" height="58.0928" filterUnits="userSpaceOnUse" color-interpolation-filters="sRGB">
<feFlood flood-opacity="0" result="BackgroundImageFix"/>
<feBlend mode="normal" in="SourceGraphic" in2="BackgroundImageFix" result="shape"/>
<feGaussianBlur stdDeviation="0.5" result="effect1_foregroundBlur_138_198"/>
</filter>
<filter id="filter3_f_138_198" x="11.3771" y="144.355" width="67.0804" height="59.1235" filterUnits="userSpaceOnUse" color-interpolation-filters="sRGB">
<feFlood flood-opacity="0" result="BackgroundImageFix"/>
<feBlend mode="normal" in="SourceGraphic" in2="BackgroundImageFix" result="shape"/>
<feGaussianBlur stdDeviation="1" result="effect1_foregroundBlur_138_198"/>
</filter>
<filter id="filter4_f_138_198" x="489.618" y="194.618" width="46.5586" height="46.5586" filterUnits="userSpaceOnUse" color-interpolation-filters="sRGB">
<feFlood flood-opacity="0" result="BackgroundImageFix"/>
<feBlend mode="normal" in="SourceGraphic" in2="BackgroundImageFix" result="shape"/>
<feGaussianBlur stdDeviation="0.5" result="effect1_foregroundBlur_138_198"/>
</filter>
<filter id="filter5_f_138_198" x="152" y="119" width="47.72" height="47.72" filterUnits="userSpaceOnUse" color-interpolation-filters="sRGB">
<feFlood flood-opacity="0" result="BackgroundImageFix"/>
<feBlend mode="normal" in="SourceGraphic" in2="BackgroundImageFix" result="shape"/>
<feGaussianBlur stdDeviation="0.5" result="effect1_foregroundBlur_138_198"/>
</filter>
<filter id="filter6_f_138_198" x="479.915" y="63.0829" width="67.6821" height="67.8602" filterUnits="userSpaceOnUse" color-interpolation-filters="sRGB">
<feFlood flood-opacity="0" result="BackgroundImageFix"/>
<feBlend mode="normal" in="SourceGraphic" in2="BackgroundImageFix" result="shape"/>
<feGaussianBlur stdDeviation="1" result="effect1_foregroundBlur_138_198"/>
</filter>
<filter id="filter7_f_138_198" x="207.945" y="0.461502" width="64.9016" height="67.7771" filterUnits="userSpaceOnUse" color-interpolation-filters="sRGB">
<feFlood flood-opacity="0" result="BackgroundImageFix"/>
<feBlend mode="normal" in="SourceGraphic" in2="BackgroundImageFix" result="shape"/>
<feGaussianBlur stdDeviation="1" result="effect1_foregroundBlur_138_198"/>
</filter>
<linearGradient id="paint0_linear_138_198" x1="334" y1="361" x2="289.174" y2="406.173" gradientUnits="userSpaceOnUse">
<stop stop-color="#FFBF9E"/>
<stop offset="1" stop-color="#FFAF86" stop-opacity="0"/>
</linearGradient>
<linearGradient id="paint1_linear_138_198" x1="277" y1="443.822" x2="346.822" y2="373.646" gradientUnits="userSpaceOnUse">
<stop offset="1" stop-color="white"/>
<stop stop-color="#FF5F0D" stop-opacity="0.5"/>
</linearGradient>
<clipPath id="clip0_138_198">
<rect x="277" y="374" width="70" height="70" rx="16" transform="rotate(-90 277 374)" fill="white"/>
</clipPath>
</defs>
</svg>
